<svg width="174" height="58" viewBox="0 0 174 58" fill="none" xmlns="http://www.w3.org/2000/svg">
<path d="M13.1543 9.20972C13.0837 8.45415 13.0773 7.45474 13.3147 6.32218C13.8008 4.00093 15.0296 2.42882 15.721 1.67004C13.4447 2.16253 11.7314 3.75228 11.3897 5.68051C11.1603 6.97348 11.6111 8.05791 11.871 8.56804L13.1543 9.20972Z" fill="#000D1F"/>
<path d="M27.2712 0.0657002C26.6423 0.311141 25.7488 0.681708 24.7045 1.18863C22.68 2.172 21.1528 2.91473 19.7316 4.23658C18.9327 4.98093 17.7536 6.29315 16.844 8.40747C16.1799 8.67536 15.5174 8.94166 14.8533 9.20956C14.9415 8.02086 15.28 5.98675 16.6836 4.07616C20.2048 -0.717142 26.9263 0.0223872 27.2712 0.0657002Z" fill="#000D1F"/>
<path d="M23.8915 7.92621H19.1945C19.1865 7.91337 19.1768 7.89733 19.1672 7.87808C18.8175 7.06316 22.2873 4.10824 25.8277 2.95323C31.4375 1.12285 36.9607 2.99013 36.9815 3.39759C36.9815 3.42807 36.9751 3.45695 36.9751 3.45695C36.5452 3.56764 36.0912 3.6687 35.6132 3.75693C34.4357 3.97189 33.0256 3.8997 32.0567 3.91574C32.0391 3.91574 32.0439 3.95103 32.0455 3.9751C32.0535 4.36652 34.1357 4.92799 34.8111 5.04028C36.3671 5.30016 36.9719 5.69479 39.4632 6.80488C40.6968 7.35512 44.1008 8.88872 43.9083 9.75498C43.9035 9.78065 43.8955 9.7999 43.8891 9.81433C43.626 9.85283 43.1945 9.89775 42.6715 9.85284C41.0256 9.71167 40.0455 8.6898 38.5007 8.40907C38.0467 8.32565 37.3489 8.26309 36.4425 8.44115C36.4281 8.43794 36.4121 8.44757 36.4072 8.46201C36.4024 8.47484 36.4072 8.49088 36.4217 8.5005C39.0621 9.75498 42.1165 11.1619 44.9158 12.7404C46.1734 13.4494 47.3926 14.1649 48.5733 14.882C48.5877 14.89 48.5925 14.906 48.5877 14.9205C48.5829 14.9333 48.5701 14.9445 48.5524 14.9397C48.1979 15.0424 47.7856 15.1242 47.322 15.145C45.4852 15.2285 44.096 14.3061 43.5266 13.8729C43.5153 13.8713 43.5041 13.8729 43.4961 13.8826C43.4897 13.8906 43.4864 13.9018 43.4897 13.9146C44.3575 14.6429 45.8702 16.5808 46.9996 18.193C47.8835 19.4539 49.4508 21.7447 49.8871 25.091C50.0379 26.2476 50.1389 28.1871 49.5085 30.5436C49.5133 30.5581 49.5085 30.5741 49.4941 30.5821C49.4828 30.5885 49.4652 30.5885 49.454 30.5757C49.2711 28.7758 48.7465 26.1081 47.16 23.328C43.6292 17.1407 37.3425 14.2611 35.6485 13.7478C35.6404 13.7398 35.6292 13.735 35.618 13.7382C35.6068 13.7398 35.5971 13.7478 35.5939 13.7606L35.2923 14.8194C35.2923 14.8194 35.2907 14.8306 35.2923 14.8354C35.9051 15.2397 36.7971 15.8397 37.8574 16.592C39.1632 17.5192 41.7074 19.3191 42.3491 20.1212C44.7874 23.1692 46.1911 26.3936 46.5199 27.3401C46.9322 28.5256 48.7561 33.7841 46.1991 39.2111C45.166 41.404 43.764 42.8894 42.7967 43.7605C42.7967 43.7782 42.7886 43.7942 42.7758 43.799C42.7614 43.8038 42.7437 43.799 42.7373 43.7798C43.5987 41.8066 45.3441 37.0261 43.9533 31.511C43.703 30.5212 42.8592 27.1684 40.2637 24.1317C39.2755 22.9751 38.398 22.2917 35.9324 19.64C34.7614 18.3807 33.5069 16.5166 32.8877 15.798C32.8877 15.7947 32.8861 15.7931 32.8845 15.7899C32.8845 15.7883 32.8813 15.7851 32.8797 15.7835C35.01 13.7863 35.5153 10.6453 34.1694 8.24865C32.6503 5.5456 29.3938 4.7034 26.9507 5.52153C25.2358 6.09583 24.2637 7.37277 23.8915 7.92781V7.92621Z" fill="#000D1F"/>
<path d="M36.2547 22.3639C37.5894 23.5542 39.7983 25.8771 40.9068 29.4223C42.3137 33.9253 41.6335 39.4003 38.8214 43.3787C35.2344 48.4544 30.2455 48.1704 26.6297 54.7684C25.9832 55.9475 25.5805 56.9822 25.3463 57.656C24.9004 56.7929 24.3261 55.4021 24.2234 53.6455C24.01 49.9816 25.9944 47.2015 27.2713 45.4642C29.9038 41.882 31.0844 42.6873 33.688 39.3683C34.6216 38.178 37.1434 34.8765 37.538 30.064C37.8204 26.623 36.8932 23.8654 36.2547 22.3639Z" fill="url(#paint0_linear_41_111)"/>
<path d="M20.0523 56.052C17.9091 52.9993 17.5193 50.5256 17.4856 48.9936C17.2915 40.3422 27.8582 37.1659 29.1961 26.2142C29.7078 22.0192 28.5207 19.5151 28.0731 18.6745C26.4577 15.641 23.7708 14.1523 22.4585 13.5411C23.5381 14.7426 25.6942 17.4746 26.469 21.562C26.7224 22.9031 27.4218 27.5232 25.0252 31.9892C22.6944 36.3318 19.7058 36.2997 16.2023 41.6144C14.7746 43.78 13.9661 45.7644 13.5233 47.0189C13.0822 44.5147 13.2346 42.5239 13.4752 41.1331C14.7216 33.8966 20.4982 30.0466 18.9294 26.0537C18.6615 25.3736 18.262 24.8923 17.9909 24.6116C17.9428 24.4624 17.8834 24.3004 17.8064 24.1287C17.7535 24.0132 17.7006 23.9057 17.646 23.8079C17.7198 24.3838 17.7294 25.2244 17.3252 26.0537C16.0354 28.7039 11.8742 28.4809 11.5502 28.46C11.17 28.4344 7.28628 28.1264 6.57724 25.7329C6.33982 24.9292 6.53714 24.1592 6.73766 23.6475C6.95422 23.6186 7.83812 23.4742 8.50225 22.685C9.04766 22.0369 9.12787 21.3294 9.14391 21.0808C8.63379 21.3631 7.74828 21.7674 6.57724 21.8829C5.09819 22.0288 3.93838 21.639 3.3689 21.4016C4.02019 20.3974 4.6763 19.7284 5.13349 19.3162C6.65584 17.943 7.98089 17.6045 8.66266 16.1078C8.87281 15.6474 8.94981 15.2335 8.9835 14.9849C8.88885 14.7539 8.75731 14.3448 8.82308 13.8619C8.96746 12.8016 9.95562 12.1439 10.7481 11.6161C11.0914 11.3883 11.6272 11.0739 12.3523 10.814C12.8864 11.0273 13.4222 11.2423 13.9564 11.4557C15.081 10.7947 17.1359 9.78891 19.8919 9.53063C21.95 9.33813 23.6569 9.63009 24.7846 9.92045C24.9771 9.5948 25.8594 8.1783 27.5919 7.76603C29.2442 7.373 31.5253 7.93126 32.244 9.69105C32.9514 11.422 31.9408 13.8058 29.6773 14.664C31.0922 16.2153 33.7808 19.6081 34.6502 24.61C34.8668 25.8516 35.3866 29.044 34.3294 32.6309C31.7146 41.4989 22.4168 42.718 20.3731 51.5603C19.94 53.4356 19.9721 55.0478 20.0523 56.052Z" fill="url(#paint1_linear_41_111)"/>
<path d="M15.0793 33.2723C14.4842 33.7584 13.5201 34.4257 12.1918 34.8765C11.1876 35.2182 10.2893 35.3289 9.62514 35.3578C8.90968 36.3059 7.89745 37.9421 7.53972 40.1703C6.69592 45.4128 10.2059 49.3655 10.7481 49.9559C10.3342 48.4335 9.69572 45.2749 10.5876 41.4537C11.5919 37.1545 13.9724 34.4065 15.0793 33.2723Z" fill="url(#paint2_linear_41_111)"/>
<path d="M7.05917 35.037C6.76079 34.9985 6.36617 34.9119 5.93625 34.7162C5.19993 34.3809 4.73472 33.8916 4.49249 33.5933C4.03691 34.336 2.90918 36.3894 3.04874 39.2079C3.17707 41.7987 4.30481 43.6162 4.81333 44.3413C4.67056 43.2954 4.58072 41.7104 4.97375 39.8496C5.44698 37.6053 6.40787 35.9707 7.05917 35.037Z" fill="url(#paint3_linear_41_111)"/>
<path d="M1.12279 26.214C1.13081 26.4675 1.13723 26.8605 1.12279 27.3369C1.04258 29.9566 0.424975 31.4565 0.160287 32.9516C-0.0450468 34.1098 -0.139693 35.8263 0.481121 38.085C0.527642 37.4657 0.697684 36.2867 1.44362 35.037C2.25052 33.6863 3.31088 32.9532 3.84988 32.6307C3.60605 32.3757 3.10555 31.7821 2.88738 30.8661C2.7029 30.0881 2.80717 29.44 2.88738 29.1015C2.29865 28.139 1.71152 27.1765 1.12279 26.214Z" fill="url(#paint4_linear_41_111)"/>
<path d="M9.62503 7.12427C9.61861 7.49965 9.64749 7.99855 9.78545 8.56803C9.91538 9.09902 10.0999 9.53215 10.2667 9.85138C9.87047 9.96207 8.2663 10.4578 7.21877 12.0972C6.28514 13.5571 6.37337 15.0185 6.41669 15.466C5.94025 15.8302 5.26329 16.3708 4.49168 17.0702C2.90355 18.5092 2.0389 19.2936 1.44375 20.439C1.09244 21.1144 0.473231 22.6127 0.802086 24.9307C0.534189 24.5024 0.267897 24.0757 0 23.6474C0.397835 21.0646 1.22077 19.2423 1.92501 18.0327C2.87788 16.3933 3.86605 15.4404 4.81251 13.2202C5.33868 11.985 5.61941 10.9053 5.77502 10.1722C6.17766 9.56744 6.58994 9.15677 6.89794 8.88887C7.3054 8.53595 7.81713 8.22153 8.82294 7.60552C9.15501 7.4034 9.43253 7.23816 9.62503 7.12427Z" fill="#000D1F"/>
<path d="M3.12855 22.2836C3.05155 22.7424 2.86868 24.3498 3.20876 25.4117C3.51355 26.3614 4.02368 27.0031 4.33168 27.3368C4.70545 27.1234 5.32145 26.9886 5.69523 26.7753L4.89314 23.4065L3.12855 22.2836Z" fill="url(#paint5_linear_41_111)"/>
<path d="M6.25627 28.4597L5.29376 29.1014C5.2713 29.6404 5.32585 30.4345 5.77501 31.1868C6.90275 33.0766 9.67796 33.2995 11.3896 32.9514C14.2819 32.3627 15.6679 29.8265 15.8813 29.4222C15.0888 29.7784 13.2713 30.4682 10.9084 30.2243C8.58231 29.9837 6.9621 28.965 6.25627 28.4597Z" fill="url(#paint6_linear_41_111)"/>
<path d="M38.3403 51.7204C39.3148 51.7204 40.1049 51.074 40.1049 50.2767C40.1049 49.4793 39.3148 48.8329 38.3403 48.8329C37.3657 48.8329 36.5757 49.4793 36.5757 50.2767C36.5757 51.074 37.3657 51.7204 38.3403 51.7204Z" fill="url(#paint7_linear_41_111)"/>
<path d="M19.8918 15.7867L18.2876 16.268C18.1609 16.4813 17.8689 16.9097 17.3251 17.2305C16.7139 17.5898 16.13 17.6107 15.8814 17.6043C15.607 17.8353 15.2349 18.108 14.7584 18.3534C14.274 18.6021 13.828 18.7465 13.4751 18.8347C13.581 18.3919 13.7687 17.7679 14.1168 17.0701C14.3253 16.6514 14.6622 16.0675 14.9189 15.7867C15.7594 14.8675 17.7855 14.9846 19.8918 15.7867Z" fill="white"/>
<path d="M15.721 23.6472C15.3071 23.9343 14.4168 24.4701 13.1543 24.6097C11.98 24.7396 11.0528 24.4637 10.586 24.2889C10.4898 24.2343 10.4465 24.1669 10.4272 24.1284C10.3374 23.9552 10.3999 23.7082 10.586 23.5189C11.1427 23.4386 11.733 23.3729 12.3522 23.3264C13.5746 23.2365 14.7055 23.2429 15.721 23.3023V23.6472Z" fill="white"/>
<path d="M15.3794 25.7711C15.0184 26.0213 14.242 26.4882 13.1415 26.6101C12.1165 26.724 11.308 26.4817 10.9005 26.3294C10.8171 26.2812 10.7802 26.2235 10.7626 26.1898C10.6856 26.0374 10.7385 25.824 10.9005 25.6572C11.3866 25.5866 11.9015 25.5289 12.4421 25.4904C13.5089 25.4118 14.4939 25.4166 15.381 25.4695V25.7695L15.3794 25.7711Z" fill="white"/>
<path d="M64.8714 28.128H71.5914V30.728H64.8714V28.128ZM65.1114 35.828H61.8714V21.828H72.4514V24.428H65.1114V35.828ZM80.711 35.988C79.8176 35.988 79.0176 35.8147 78.311 35.468C77.6176 35.1213 77.0776 34.5947 76.691 33.888C76.3043 33.168 76.111 32.2547 76.111 31.148V25.068H79.231V30.688C79.231 31.5813 79.4176 32.2413 79.791 32.668C80.1776 33.0813 80.7176 33.288 81.411 33.288C81.891 33.288 82.3176 33.188 82.691 32.988C83.0643 32.7747 83.3576 32.4547 83.571 32.028C83.7843 31.588 83.891 31.0413 83.891 30.388V25.068H87.011V35.828H84.051V32.868L84.591 33.728C84.231 34.4747 83.6976 35.0413 82.991 35.428C82.2976 35.8013 81.5376 35.988 80.711 35.988ZM95.5214 35.988C94.6014 35.988 93.7148 35.8813 92.8614 35.668C92.0214 35.4413 91.3548 35.1613 90.8614 34.828L91.9014 32.588C92.3948 32.8947 92.9748 33.148 93.6414 33.348C94.3214 33.5347 94.9881 33.628 95.6414 33.628C96.3614 33.628 96.8681 33.5413 97.1614 33.368C97.4681 33.1947 97.6214 32.9547 97.6214 32.648C97.6214 32.3947 97.5014 32.208 97.2614 32.088C97.0348 31.9547 96.7281 31.8547 96.3414 31.788C95.9548 31.7213 95.5281 31.6547 95.0614 31.588C94.6081 31.5213 94.1481 31.4347 93.6814 31.328C93.2148 31.208 92.7881 31.0347 92.4014 30.808C92.0148 30.5813 91.7014 30.2747 91.4614 29.888C91.2348 29.5013 91.1214 29.0013 91.1214 28.388C91.1214 27.708 91.3148 27.108 91.7014 26.588C92.1014 26.068 92.6748 25.6613 93.4214 25.368C94.1681 25.0613 95.0614 24.908 96.1014 24.908C96.8348 24.908 97.5814 24.988 98.3414 25.148C99.1014 25.308 99.7348 25.5413 100.241 25.848L99.2014 28.068C98.6814 27.7613 98.1548 27.5547 97.6214 27.448C97.1014 27.328 96.5948 27.268 96.1014 27.268C95.4081 27.268 94.9014 27.3613 94.5814 27.548C94.2614 27.7347 94.1014 27.9747 94.1014 28.268C94.1014 28.5347 94.2148 28.7347 94.4414 28.868C94.6814 29.0013 94.9948 29.108 95.3814 29.188C95.7681 29.268 96.1881 29.3413 96.6414 29.408C97.1081 29.4613 97.5748 29.548 98.0414 29.668C98.5081 29.788 98.9281 29.9613 99.3014 30.188C99.6881 30.4013 100.001 30.7013 100.241 31.088C100.481 31.4613 100.601 31.9547 100.601 32.568C100.601 33.2347 100.401 33.828 100.001 34.348C99.6014 34.8547 99.0214 35.2547 98.2614 35.548C97.5148 35.8413 96.6014 35.988 95.5214 35.988ZM104.526 35.828V25.068H107.646V35.828H104.526ZM106.086 23.568C105.513 23.568 105.046 23.4013 104.686 23.068C104.326 22.7347 104.146 22.3213 104.146 21.828C104.146 21.3347 104.326 20.9213 104.686 20.588C105.046 20.2547 105.513 20.088 106.086 20.088C106.66 20.088 107.126 20.248 107.486 20.568C107.846 20.8747 108.026 21.2747 108.026 21.768C108.026 22.288 107.846 22.7213 107.486 23.068C107.14 23.4013 106.673 23.568 106.086 23.568ZM117.662 35.988C116.515 35.988 115.495 35.748 114.602 35.268C113.722 34.788 113.022 34.1347 112.502 33.308C111.995 32.468 111.742 31.5147 111.742 30.448C111.742 29.368 111.995 28.4147 112.502 27.588C113.022 26.748 113.722 26.0947 114.602 25.628C115.495 25.148 116.515 24.908 117.662 24.908C118.795 24.908 119.809 25.148 120.702 25.628C121.595 26.0947 122.295 26.7413 122.802 27.568C123.309 28.3947 123.562 29.3547 123.562 30.448C123.562 31.5147 123.309 32.468 122.802 33.308C122.295 34.1347 121.595 34.788 120.702 35.268C119.809 35.748 118.795 35.988 117.662 35.988ZM117.662 33.428C118.182 33.428 118.649 33.308 119.062 33.068C119.475 32.828 119.802 32.488 120.042 32.048C120.282 31.5947 120.402 31.0613 120.402 30.448C120.402 29.8213 120.282 29.288 120.042 28.848C119.802 28.408 119.475 28.068 119.062 27.828C118.649 27.588 118.182 27.468 117.662 27.468C117.142 27.468 116.675 27.588 116.262 27.828C115.849 28.068 115.515 28.408 115.262 28.848C115.022 29.288 114.902 29.8213 114.902 30.448C114.902 31.0613 115.022 31.5947 115.262 32.048C115.515 32.488 115.849 32.828 116.262 33.068C116.675 33.308 117.142 33.428 117.662 33.428ZM134.188 24.908C135.041 24.908 135.801 25.0813 136.468 25.428C137.148 25.7613 137.681 26.2813 138.068 26.988C138.454 27.6813 138.648 28.5747 138.648 29.668V35.828H135.528V30.148C135.528 29.2813 135.334 28.6413 134.948 28.228C134.574 27.8147 134.041 27.608 133.348 27.608C132.854 27.608 132.408 27.7147 132.008 27.928C131.621 28.128 131.314 28.4413 131.088 28.868C130.874 29.2947 130.768 29.8413 130.768 30.508V35.828H127.648V25.068H130.628V28.048L130.068 27.148C130.454 26.428 131.008 25.8747 131.728 25.488C132.448 25.1013 133.268 24.908 134.188 24.908ZM144.656 35.988C144.122 35.988 143.662 35.808 143.276 35.448C142.902 35.0747 142.716 34.6013 142.716 34.028C142.716 33.4547 142.902 32.9947 143.276 32.648C143.662 32.288 144.122 32.108 144.656 32.108C145.202 32.108 145.662 32.288 146.036 32.648C146.409 32.9947 146.596 33.4547 146.596 34.028C146.596 34.6013 146.409 35.0747 146.036 35.448C145.662 35.808 145.202 35.988 144.656 35.988ZM149.735 35.828L155.975 21.828H159.175L165.435 35.828H162.035L156.915 23.468H158.195L153.055 35.828H149.735ZM152.855 32.828L153.715 30.368H160.915L161.795 32.828H152.855ZM168.887 35.828V21.828H172.127V35.828H168.887Z" fill="#000D1F"/>
<defs>
<linearGradient id="paint0_linear_41_111" x1="32.9116" y1="57.656" x2="32.9116" y2="22.3639" gradientUnits="userSpaceOnUse">
<stop offset="0.245" stop-color="#007EA7"/>
<stop offset="1"/>
</linearGradient>
<linearGradient id="paint1_linear_41_111" x1="6.75049" y1="48.3728" x2="30.1797" y2="7.79348" gradientUnits="userSpaceOnUse">
<stop offset="0.365" stop-color="#007EA7"/>
<stop offset="0.88"/>
</linearGradient>
<linearGradient id="paint2_linear_41_111" x1="11.2437" y1="49.9559" x2="11.2437" y2="33.2723" gradientUnits="userSpaceOnUse">
<stop offset="0.12" stop-color="#007EA7"/>
<stop offset="1"/>
</linearGradient>
<linearGradient id="paint3_linear_41_111" x1="5.04754" y1="44.3413" x2="5.04754" y2="33.5933" gradientUnits="userSpaceOnUse">
<stop offset="0.495" stop-color="#007EA7"/>
<stop offset="1"/>
</linearGradient>
<linearGradient id="paint4_linear_41_111" x1="1.92808" y1="38.085" x2="1.92808" y2="26.214" gradientUnits="userSpaceOnUse">
<stop offset="0.33" stop-color="#007EA7"/>
<stop offset="1"/>
</linearGradient>
<linearGradient id="paint5_linear_41_111" x1="4.35254" y1="27.3368" x2="4.35254" y2="22.2836" gradientUnits="userSpaceOnUse">
<stop stop-color="#007EA7"/>
<stop offset="1"/>
</linearGradient>
<linearGradient id="paint6_linear_41_111" x1="10.5859" y1="33.0878" x2="10.5859" y2="28.4597" gradientUnits="userSpaceOnUse">
<stop offset="0.23" stop-color="#007EA7"/>
<stop offset="1"/>
</linearGradient>
<linearGradient id="paint7_linear_41_111" x1="38.3403" y1="51.7204" x2="38.3403" y2="48.8329" gradientUnits="userSpaceOnUse">
<stop stop-color="#007EA7"/>
<stop offset="1"/>
</linearGradient>
</defs>
</svg>